<svg xmlns="http://www.w3.org/2000/svg" viewBox="0 0 1481.38 1132.2"><defs><style>.cls-1{fill:#282828;}.cls-2{fill:#f07e12;}</style></defs><g id="Layer_2" data-name="Layer 2"><g id="Layer_1-2" data-name="Layer 1"><path class="cls-1" d="M193.57,784.54a114.91,114.91,0,0,1,45,46.87q16.07,30.27,16.06,70.12t-15.87,70.13a113.68,113.68,0,0,1-44.84,46.87q-29,16.6-67,16.6t-66.62-15.31a107.83,107.83,0,0,1-44.47-44.29Q0,946.57,0,907.07q0-7.38,1.48-22.88H189q-1.47-27.68-18.81-43.55t-42.82-15.87q-19.56,0-34.14,8.86A47.73,47.73,0,0,0,72.7,858H4.06a117.82,117.82,0,0,1,66.61-78.61q25.27-11.45,55.91-11.44Q164.59,767.94,193.57,784.54ZM168.11,963.72q17.52-13.47,20.48-37.09H65Q66.06,949.15,83,963.17t42.81,14Q150.57,977.19,168.11,963.72Z"/><path class="cls-1" d="M356.51,759.08v273.1H293.4V759.08Z"/><path class="cls-1" d="M524.8,957.63H592q-7,31.38-28.05,51.3t-52.41,24.73v13.65q19.18,0,33.59,10.52t14.39,31.56q0,21-15.13,31.92t-36.17,10.89H451.36v-34.7H499.7q7.38,0,11.07-2.21c2.46-1.48,3.7-3.94,3.7-7.38s-1.24-5.85-3.7-7.2-6.15-2-11.07-2H473.5v-45q-38-5.91-60.9-33.77t-22.88-70.68q0-32.1,13.1-56.09a91,91,0,0,1,36.54-36.91q23.43-12.91,53.7-12.91,38.74,0,64.77,20.29T592,900.8H524.8q-8.5-23.62-32.85-23.62-17.35,0-27.68,13.47t-10.33,38.56q0,25.11,10.33,38.57T492,981.25Q516.31,981.25,524.8,957.63Z"/><path class="cls-1" d="M625,873.12q12-24,32.67-36.91a85.24,85.24,0,0,1,46.13-12.91q21.76,0,38.19,8.85t25.29,23.25V826.25h63.11v205.93H767.27V1003a68.37,68.37,0,0,1-25.65,23.25q-16.43,8.85-38.2,8.85a83.66,83.66,0,0,1-45.76-13.1Q637,1008.94,625,984.76t-12-55.92Q613,897.12,625,873.12Zm129.17,18.82a44.33,44.33,0,0,0-63.84-.18q-13.11,13.47-13.1,37.08t13.1,37.47a43.95,43.95,0,0,0,63.84.18q13.1-13.65,13.11-37.28T754.16,891.94Z"/><path class="cls-1" d="M990.91,978.67v53.51H958.8q-34.32,0-53.51-16.79T886.1,960.58V878.65H861v-52.4h25.1V776.06h63.11v50.19h41.33v52.4H949.21v82.67q0,9.23,4.43,13.29t14.76,4.06Z"/><path class="cls-1" d="M1025.42,873.12q12-24,32.66-36.91a85.24,85.24,0,0,1,46.13-12.91q21.76,0,38.2,8.85t25.28,23.25V826.25h63.1v205.93h-63.1V1003a68.37,68.37,0,0,1-25.65,23.25q-16.43,8.85-38.2,8.85a83.63,83.63,0,0,1-45.76-13.1q-20.68-13.1-32.66-37.27t-12-55.92Q1013.42,897.12,1025.42,873.12Zm129.17,18.82a44.34,44.34,0,0,0-63.85-.18q-13.11,13.47-13.1,37.08t13.1,37.47a44,44,0,0,0,63.85.18q13.1-13.65,13.1-37.28T1154.59,891.94Z"/><path class="cls-1" d="M1459.79,847.47q21.59,23.44,21.59,64.4v120.31h-62.74V920.36q0-20.67-10.7-32.11t-28.79-11.44q-18.09,0-28.79,11.44t-10.7,32.11v111.82h-63.11V826.25h63.11v27.31A66.48,66.48,0,0,1,1365.5,832Q1381.73,824,1402,824,1438.2,824,1459.79,847.47Z"/><path class="cls-1" d="M700,628c7.45-58.36.23-62-33-60.46a3.84,3.84,0,0,1-3.34-1.66c-20.5-30.12-30-31.41-57.76-6.12a3.82,3.82,0,0,1-4.86.19c-13.89-10.46-25.56-6.26-41,4.67-11.28,8-31,5.45-46.84,5.09-12.57-.29-25-4.53-37.59-6.81-20.69-3.76-28.57-13-27.73-37.32a3.87,3.87,0,0,1,4.72-3.64L533,540.38a3.84,3.84,0,0,0,4-1.48h0a4.24,4.24,0,0,0-.62-5.72,39,39,0,0,0-9.46-6.38c-24.17-10.08-51.35-11-76.19-19-9.36-3-19.64-12.32-23.49-21.33-7.24-17,4.12-29,22.34-25.2,24.3,5.09,48.29,11.68,72.42,17.59,5.17,1.27,10.36,2.45,15.54,3.65a3.84,3.84,0,0,0,4.3-2l0-.05a3.83,3.83,0,0,0-1-4.7,50.23,50.23,0,0,0-10.69-7c-24.54-10.88-52-13.54-78.14-19.53-16.9-3.88-26.7-15.45-23.09-30.79,3.94-16.74,16.64-19.53,31.37-16.88,27.76,5,55.33,11.14,83.21,15.3,32.78,4.88,65.46,5.54,97.36-6.84,13.38-5.19,34.87,17.38,35.29,36.67.54,25.64,5.62,49.56,24.79,68.11a66.39,66.39,0,0,0,19.78,13.36c14.49,6.13,24.64,2.65,27.38-14.88,2.19-14,5.4-27.92,8.58-43.37a3.83,3.83,0,0,1,4.42-3c72.08,12.38,137.35-2,193.19-49.39,56.2-47.71,80.65-110.54,80.17-184.07v-2c3.63,6.45,15.27,32.07,16.59,39C1073.85,389.49,1041.61,472,952.36,554,889.72,611.47,814,637.2,728.84,634.56c-6.18-.19-17.26-1.44-25.47-2.28A3.81,3.81,0,0,1,700,628Z"/><path class="cls-1" d="M733.28,519.8c-34.27-15.06-45.45-40.71-43.77-70.1,1.62-28.41-20.32-38.78-34.18-55.59-1.62-2-8-2.18-10.82-.66-36.2,19.62-74.37,14.06-112.28,8.65-21.89-3.12-43.4-8.78-65.21-12.6-10.41-1.83-21.09-2-32.85-3.07C404.43,305,430.68,136.34,574.28,48,650.56,1.05,785-16.67,812.65,18.6c-9.13.83-16.87,1.56-24.61,2.24-117.21,10.36-206.47,109-205.63,226.44.1,13.89,4.06,23,17,28.25C621.11,284.36,643,292.86,664,303c9.66,4.65,19.87,11.27,25.9,19.78,17,24,32.76,49.1,47.4,74.67a54.6,54.6,0,0,1,6.55,29.63C741.61,456.9,737.25,486.55,733.28,519.8Z"/><path class="cls-1" d="M472,574.43l45.68,9.22c-1,8.87-1.73,15.85-2.66,24.35C496.71,602.79,478,601.89,472,574.43Z"/><path class="cls-2" d="M829,33.6s51.45,30,77.63,47.6,80.06-8,97.08-7.48l17,.47S902,163.39,877.18,209.1s-38.57,73.21-23.11,104.83,55.06,57,68.19,61l13.14,4s-87.09,3.39-117.21-40.24-24.13-103.34,4.15-140.34,52.88-57,36.58-101.82S829,33.6,829,33.6Z"/><circle class="cls-1" cx="755.16" cy="132.17" r="43.04"/><rect class="cls-1" x="562.9" y="564.03" width="33.11" height="96.23" rx="16.55" transform="translate(66.74 -56.89) rotate(5.96)"/><rect class="cls-1" x="610.87" y="556.55" width="39.83" height="114.17" rx="19.91" transform="translate(67.17 -62.22) rotate(5.96)"/><rect class="cls-1" x="525.04" y="579.98" width="23.25" height="66.91" rx="11.63" transform="translate(66.64 -52.44) rotate(5.96)"/><rect class="cls-1" x="664.28" y="580.19" width="27.12" height="66.91" rx="13.56" transform="translate(67.43 -67.11) rotate(5.96)"/></g></g></svg>